<svg xmlns="http://www.w3.org/2000/svg" viewBox="0 0 220 150" role="img" aria-hidden="true">
<defs>
<linearGradient id="violet" x1="0" y1="0" x2="1" y2="1"><stop stop-color="#b48cff"/><stop offset="1" stop-color="#5142ca"/></linearGradient>
<linearGradient id="cyan" x1="0" y1="0" x2="1" y2="1"><stop stop-color="#7df7ff"/><stop offset="1" stop-color="#1689b8"/></linearGradient>
<linearGradient id="metal" x1="0" y1="0" x2="1" y2="1"><stop stop-color="#d9e0ea"/><stop offset=".45" stop-color="#75808e"/><stop offset="1" stop-color="#2d3441"/></linearGradient>
<linearGradient id="gold" x1="0" y1="0" x2="1" y2="1"><stop stop-color="#fff0a5"/><stop offset=".48" stop-color="#d49b2e"/><stop offset="1" stop-color="#7f481d"/></linearGradient>
<filter id="glow" x="-60%" y="-60%" width="220%" height="220%"><feGaussianBlur stdDeviation="4" result="b"/><feMerge><feMergeNode in="b"/><feMergeNode in="SourceGraphic"/></feMerge></filter><filter id="shadow" x="-30%" y="-30%" width="160%" height="160%"><feDropShadow dx="0" dy="5" stdDeviation="5" flood-opacity=".4"/></filter></defs>

<ellipse cx="110" cy="132" rx="82" ry="10" fill="#000" opacity=".25"/>
<g filter="url(#shadow)">
<path d="M31 38h158l15 76H16z" fill="#5d6070" stroke="#d1d5df" stroke-width="3"/>
<path d="M42 50h136l8 45H34z" fill="#242837"/>
<rect x="54" y="60" width="46" height="24" rx="4" fill="#11141e"/><path d="M62 72h30" stroke="#58e6ff" stroke-width="5" filter="url(#glow)"/>
<circle cx="139" cy="70" r="9" fill="#ff6b8e"/><circle cx="163" cy="70" r="9" fill="#ffd45c"/>
<path d="M52 105h116" stroke="#2b2f3c" stroke-width="7"/><rect x="79" y="106" width="62" height="9" rx="4" fill="#11141c"/>
<path d="M19 115h182" stroke="#1e2230" stroke-width="5"/>
</g>
</svg>