<svg xmlns="http://www.w3.org/2000/svg" viewBox="0 0 180 190" role="img" aria-hidden="true">
  <defs>
    <radialGradient id="so-orb" cx="35%" cy="28%"><stop stop-color="#eaffff"/><stop offset=".22" stop-color="#75f5e3"/><stop offset=".58" stop-color="#7663e8"/><stop offset="1" stop-color="#21163f"/></radialGradient>
    <linearGradient id="so-base" x1="0" y1="0" x2="1" y2="1"><stop stop-color="#cbd5e4"/><stop offset=".45" stop-color="#606d80"/><stop offset="1" stop-color="#242b38"/></linearGradient>
    <filter id="so-glow" x="-70%" y="-70%" width="240%" height="240%"><feGaussianBlur stdDeviation="5" result="b"/><feMerge><feMergeNode in="b"/><feMergeNode in="SourceGraphic"/></feMerge></filter>
    <filter id="so-shadow" x="-35%" y="-30%" width="170%" height="180%"><feDropShadow dx="0" dy="7" stdDeviation="6" flood-opacity=".45"/></filter>
  </defs>
  <ellipse cx="90" cy="176" rx="58" ry="9" fill="#080817" opacity=".34"/>
  <g filter="url(#so-shadow)">
    <circle cx="90" cy="75" r="56" fill="url(#so-orb)" stroke="#b9fff8" stroke-width="3" filter="url(#so-glow)"/>
    <path d="M45 79c24-22 66-26 91-3M51 48c29 13 55 36 74 65M59 112c20-34 42-57 70-75" fill="none" stroke="#e7ffff" stroke-width="2" opacity=".52"/>
    <g fill="#fff" filter="url(#so-glow)"><circle cx="62" cy="52" r="3"/><circle cx="112" cy="42" r="4"/><circle cx="124" cy="91" r="3"/><circle cx="79" cy="108" r="3"/></g>
    <path d="M64 126h52l12 30H52z" fill="url(#so-base)" stroke="#99a6b9" stroke-width="3"/><path d="M45 155h90l12 17H33z" fill="#252b39" stroke="#69768a" stroke-width="3"/>
    <path d="M64 157h52" stroke="#77f7e7" stroke-width="4" stroke-linecap="round" filter="url(#so-glow)"/>
  </g>
</svg>
