<svg xmlns="http://www.w3.org/2000/svg" viewBox="0 0 220 180" role="img" aria-hidden="true">
  <defs>
    <radialGradient id="vm-wing"><stop stop-color="#8cf8ed"/><stop offset=".42" stop-color="#6e54bd"/><stop offset="1" stop-color="#18162e"/></radialGradient>
    <linearGradient id="vm-body" x1="0" y1="0" x2="0" y2="1"><stop stop-color="#c6a7ff"/><stop offset="1" stop-color="#30254c"/></linearGradient>
    <filter id="vm-glow" x="-60%" y="-60%" width="220%" height="220%"><feGaussianBlur stdDeviation="3" result="b"/><feMerge><feMergeNode in="b"/><feMergeNode in="SourceGraphic"/></feMerge></filter>
    <filter id="vm-shadow" x="-25%" y="-25%" width="150%" height="170%"><feDropShadow dx="0" dy="6" stdDeviation="5" flood-opacity=".45"/></filter>
  </defs>
  <ellipse cx="110" cy="164" rx="67" ry="8" fill="#080818" opacity=".32"/>
  <g filter="url(#vm-shadow)">
    <path d="M101 67C82 27 40 17 18 31c5 35 25 63 75 70zm18 0c19-40 61-50 83-36-5 35-25 63-75 70z" fill="url(#vm-wing)" stroke="#9f8be8" stroke-width="3"/>
    <path d="M95 91C61 84 32 95 25 124c29 21 57 17 78-9zm30 0c34-7 63 4 70 33-29 21-57 17-78-9z" fill="#2c2853" stroke="#796ddd" stroke-width="3"/>
    <path d="M103 55h14l9 68-16 24-16-24z" fill="url(#vm-body)" stroke="#d0c1ff" stroke-width="3"/>
    <circle cx="110" cy="50" r="13" fill="#272043" stroke="#8cf8ed" stroke-width="3"/><path d="M104 40 91 24m25 16 13-16" stroke="#bca8ff" stroke-width="3" stroke-linecap="round"/>
    <g fill="#e6fbff" filter="url(#vm-glow)"><circle cx="55" cy="46" r="3"/><circle cx="75" cy="70" r="4"/><circle cx="40" cy="112" r="3"/><circle cx="165" cy="46" r="3"/><circle cx="145" cy="70" r="4"/><circle cx="180" cy="112" r="3"/></g>
    <path d="M48 44 76 71 42 112m130-68-28 27 34 41" fill="none" stroke="#8cf8ed" stroke-width="2" opacity=".72"/>
    <path d="M92 149h36l11 11H81z" fill="#282c42" stroke="#777e9a" stroke-width="3"/>
  </g>
</svg>
